<svg height="512pt" viewBox="0 -96 512 512" width="512pt" xmlns="http://www.w3.org/2000/svg"><path d="m143.53125 319.199219h-71.414062c-39.742188 0-72.117188-32.140625-72.117188-72.117188 0-18.976562 7.386719-36.8125 20.800781-50.238281l17.511719-17.507812c7.664062-7.65625 2.25-20.804688-8.613281-20.804688h-14.699219c-8.285156 0-15-6.714844-15-15 0-8.28125 6.714844-15 15-15h14.699219c37.539062 0 56.367187 45.5 29.828125 72.015625l-17.507813 17.503906c-7.75 7.757813-12.019531 18.066407-12.019531 29.023438 0 22.789062 18.410156 42.125 42.117188 42.125h71.417968c8.28125 0 15 6.714843 15 15 0 8.285156-6.71875 15-15.003906 15zm0 0" fill="#c6bcb7"/><path d="m464.882812 319.199219h-321.367187c-25.980469 0-47.117187-21.136719-47.117187-47.117188v-32.164062c0-92.984375 71.839843-168.246094 161.992187-175.132813 6.824219-36.820312 39.171875-64.785156 77.925781-64.785156 43.726563 0 79.285156 35.558594 79.285156 79.265625v25.109375l29.289063 24.40625c42.648437 35.535156 67.109375 87.757812 67.109375 143.277344v.023437c0 25.980469-21.136719 47.117188-47.117188 47.117188zm0 0" fill="#e9dfda"/><path d="m464.882812 319.199219c25.980469 0 47.117188-21.136719 47.117188-47.117188v-.023437c0-55.519532-24.460938-107.742188-67.109375-143.277344l-29.289063-24.40625v-25.109375c0-43.707031-35.5625-79.265625-79.285156-79.265625v319.199219zm0 0" fill="#dad0cb"/><path d="m400.601562 176.734375c8.277344 0 15 6.71875 15 15 0 8.269531-6.722656 15-15 15-8.28125 0-15-6.730469-15-15 0-8.28125 6.71875-15 15-15zm0 0" fill="#333333" fill-rule="evenodd"/><path d="m336.316406 158.53125c-43.769531 0-79.25-35.480469-79.25-79.25 0-4.96875.480469-9.804688 1.324219-14.496094-10.589844.808594-20.925781 2.574219-30.925781 5.1875-.257813 3.070313-.398438 6.171875-.398438 9.308594 0 60.339844 48.914063 109.25 109.25 109.25 8.285156 0 15-6.714844 15-15 0-8.28125-6.714844-15-15-15zm0 0" fill="#c6bcb7"/></svg>